SplineFontDB: 3.2
FontName: UnicodiaHan
FullName: UnicodiaHan
FamilyName: UnicodiaHan
Weight: Regular
Copyright: Copyright (c) 2022-2025, Mikhail Merkuryev
UComments: "2022-9-30: Created with FontForge (http://fontforge.org)"
Version: 2.11.6
ItalicAngle: 0
UnderlinePosition: -100
UnderlineWidth: 50
Ascent: 800
Descent: 200
InvalidEm: 0
LayerCount: 2
Layer: 0 0 "Back" 1
Layer: 1 0 "Fore" 0
XUID: [1021 59 1751208496 28364]
FSType: 0
OS2Version: 0
OS2_WeightWidthSlopeOnly: 0
OS2_UseTypoMetrics: 1
CreationTime: 1664568655
ModificationTime: 1749334337
PfmFamily: 17
TTFWeight: 400
TTFWidth: 5
LineGap: 90
VLineGap: 0
OS2TypoAscent: 900
OS2TypoAOffset: 0
OS2TypoDescent: -100
OS2TypoDOffset: 0
OS2TypoLinegap: 90
OS2WinAscent: 900
OS2WinAOffset: 0
OS2WinDescent: 100
OS2WinDOffset: 0
HheadAscent: 900
HheadAOffset: 0
HheadDescent: 100
HheadDOffset: 0
OS2Vendor: 'PfEd'
OS2UnicodeRanges: 00000000.2a000000.00000000.00000000
MarkAttachClasses: 1
DEI: 91125
LangName: 1033
GaspTable: 1 65535 15 1
Encoding: UnicodeFull
Compacted: 1
UnicodeInterp: none
NameList: AGL For New Fonts
DisplaySize: -48
AntiAlias: 1
FitToEm: 0
WinInfo: 0 27 13
BeginPrivate: 0
EndPrivate
TeXData: 1 0 0 346030 173015 115343 0 1048576 115343 783286 444596 497025 792723 393216 433062 380633 303038 157286 324010 404750 52429 2506097 1059062 262144
BeginChars: 1114112 40

StartChar: u1AFF0
Encoding: 110576 110576 0
Width: 640
VWidth: 1040
Flags: HW
VStem: 513 22<822.175 838.682>
LayerCount: 2
Fore
SplineSet
95 2 m 1
 298 200 418 524 513 853 c 1
 535 832 l 1
 524 741 452 245 146 -53 c 1
 95 2 l 1
EndSplineSet
EndChar

StartChar: u1AFF1
Encoding: 110577 110577 1
Width: 640
VWidth: 1040
Flags: HW
VStem: 513 22<-38.6818 -33.3797>
LayerCount: 2
Fore
SplineSet
146 853 m 1
 384 618 503 238 535 -32 c 1
 513 -53 l 1
 391 368 264 633 95 798 c 1
 146 853 l 1
EndSplineSet
EndChar

StartChar: u1AFF2
Encoding: 110578 110578 2
Width: 640
VWidth: 1040
Flags: HW
VStem: 163 315<365.343 475.139>
LayerCount: 2
Fore
SplineSet
478 444 m 0
 478 244 241 350 163 240 c 1
 132 240 l 1
 132 317 142 380 163 431 c 0
 184 482 206 517 232 536 c 0
 266 561 304 574 344 574 c 0
 413 574 478 533 478 444 c 0
EndSplineSet
EndChar

StartChar: u1AFF3
Encoding: 110579 110579 3
Width: 640
VWidth: 1040
Flags: HW
VStem: 443 22<-38.6818 -26.3591 830.125 838.682>
LayerCount: 2
Fore
SplineSet
443 -53 m 1
 330 236 145 370 145 389 c 2
 145 409 l 2
 145 420 164 430 252 532 c 0
 330 623 394 730 443 853 c 1
 465 832 l 1
 433 683 356 539 235 400 c 1
 356 261 433 117 465 -32 c 1
 443 -53 l 1
EndSplineSet
EndChar

StartChar: u1AFF5
Encoding: 110581 110581 4
Width: 640
VWidth: 1040
Flags: HW
VStem: 305 20<-60 32 768 860>
LayerCount: 2
Fore
SplineSet
325 -60 m 1
 305 -60 l 1
 270 400 l 1
 305 860 l 1
 325 860 l 1
 360 400 l 1
 325 -60 l 1
EndSplineSet
EndChar

StartChar: u1AFF6
Encoding: 110582 110582 5
Width: 640
VWidth: 1040
Flags: HW
LayerCount: 2
Fore
SplineSet
328 247 m 0
 127 247 235 489 125 562 c 1
 125 593 l 1
 128 593 131 593 134 593 c 0
 307 593 459 513 459 374 c 0
 459 308 417 247 328 247 c 0
EndSplineSet
EndChar

StartChar: u1AFF7
Encoding: 110583 110583 6
Width: 640
VWidth: 1040
Flags: HW
HStem: -53 76<291.246 389.13> 157 75<268.708 389.035>
VStem: 165 67<202.973 545.736> 410 75<44.5739 137.26>
LayerCount: 2
Fore
SplineSet
485 91 m 0
 485 3 409 -53 342 -53 c 0
 297 -53 257 -33 220 8 c 0
 183 49 165 152 165 319 c 0
 165 486 179 666 207 860 c 1
 227 860 l 1
 232 801 235 750 235 708 c 0
 235 666 234 544 232 344 c 0
 232 291 234 243 237 201 c 1
 272 222 304 232 334 232 c 0
 431 232 485 161 485 91 c 0
342 23 m 0
 388 23 410 71 410 90 c 0
 410 123 380 157 343 157 c 0
 329 157 295 157 247 121 c 1
 253 95 261 76 271 64 c 0
 295 37 318 23 342 23 c 0
EndSplineSet
EndChar

StartChar: u1AFF8
Encoding: 110584 110584 7
Width: 640
VWidth: 1040
Flags: HW
HStem: -53 75<187.592 287.326> 154 76<194.686 292.419>
VStem: 95 74<41.2753 147.226> 306 75<41.5762 140.179>
LayerCount: 2
Fore
SplineSet
95 99 m 0
 95 208 241 626 505 853 c 1
 535 850 l 1
 347 646 227 335 194 227 c 1
 207 229 224 230 242 230 c 0
 300 230 381 183 381 88 c 0
 381 31 343 -20 301 -38 c 0
 279 -48 261 -53 247 -53 c 0
 98 -53 95 87 95 99 c 0
232 22 m 0
 260 22 306 37 306 95 c 0
 306 135 279 154 226 154 c 0
 222 154 222 154 174 150 c 5
 171 134 169 118 169 105 c 0
 169 24 228 22 232 22 c 0
EndSplineSet
EndChar

StartChar: u1AFF9
Encoding: 110585 110585 8
Width: 640
VWidth: 1040
Flags: HW
HStem: 568 74<185.66 283.822> 778 75<190.472 283.947>
VStem: 95 75<656.68 757.666> 513 22<-38.6818 -8.36268>
LayerCount: 2
Fore
SplineSet
95 708 m 0
 95 794 166 853 238 853 c 0
 275 853 311 836 346 802 c 0
 346 802 446 701 518 132 c 0
 525 74 531 20 535 -32 c 1
 513 -53 l 1
 500 2 486 61 472 122 c 0
 414 379 374 544 350 619 c 1
 312 585 273 568 233 568 c 0
 158 568 95 631 95 708 c 0
324 695 m 1
 312 726 283 778 232 778 c 0
 198 778 170 739 170 710 c 0
 170 704 176 642 226 642 c 0
 249 642 275 655 305 679 c 2
 324 695 l 1
EndSplineSet
EndChar

StartChar: u1AFFA
Encoding: 110586 110586 9
Width: 640
VWidth: 1040
Flags: HW
HStem: 506 75<281.552 398.255>
VStem: 413 75<397.609 489.622>
LayerCount: 2
Fore
SplineSet
488 444 m 0
 488 233 231 350 153 240 c 1
 122 240 l 1
 122 441 224 581 351 581 c 0
 418 581 488 539 488 444 c 0
413 446 m 0
 413 493 370 506 338 506 c 0
 301 506 215 468 169 312 c 1
 246 396 413 336 413 446 c 0
EndSplineSet
EndChar

StartChar: u1AFFB
Encoding: 110587 110587 10
Width: 640
VWidth: 1040
Flags: HW
HStem: 258 74<185.998 274.568> 468 74<185.749 275.77>
VStem: 95 75<345.414 454.322> 513 22<-38.6818 -23.312 823.312 838.682>
LayerCount: 2
Fore
SplineSet
95 400 m 0
 95 476 148 542 224 542 c 0
 273 542 320 516 364 465 c 1
 413 551 463 680 513 853 c 1
 535 832 l 1
 513 646 472 502 411 400 c 1
 472 298 513 154 535 -32 c 1
 513 -53 l 1
 463 120 413 249 364 335 c 1
 320 284 273 258 224 258 c 0
 148 258 95 324 95 400 c 0
170 400 m 0
 170 368 190 332 223 332 c 0
 229 332 271 335 321 400 c 1
 317 405 269 468 225 468 c 0
 188 468 170 430 170 400 c 0
EndSplineSet
EndChar

StartChar: u1AFFD
Encoding: 110589 110589 11
Width: 640
VWidth: 1040
Flags: HW
HStem: 257 75<303.606 394.708> 468 75<304.11 394.708>
VStem: 184 20<-60 22.7271 780.131 860> 410 75<345.942 454.058>
LayerCount: 2
Fore
SplineSet
240 310 m 1
 223 198 231 160 204 -60 c 1
 184 -60 l 1
 171 59 165 155 165 227 c 0
 165 299 172 357 185 400 c 1
 172 443 165 501 165 573 c 0
 165 645 171 741 184 860 c 1
 204 860 l 1
 215 775 222 702 226 642 c 0
 230 582 234 531 240 490 c 1
 279 525 318 543 357 543 c 0
 427 543 485 481 485 400 c 0
 485 319 427 257 357 257 c 0
 318 257 279 275 240 310 c 1
357 332 m 0
 400 332 410 387 410 400 c 0
 410 413 400 468 357 468 c 0
 330 468 287 443 264 400 c 0
 265 399 301 332 357 332 c 0
EndSplineSet
EndChar

StartChar: u1AFFE
Encoding: 110590 110590 12
Width: 640
VWidth: 1040
Flags: HW
HStem: 237 75<283.001 374.801>
VStem: 391 75<327.025 445.041>
LayerCount: 2
Fore
SplineSet
330 237 m 0
 118 237 235 499 125 572 c 1
 125 603 l 1
 128 603 130 603 133 603 c 0
 321 603 466 505 466 374 c 0
 466 307 425 237 330 237 c 0
331 312 m 0
 379 312 391 358 391 383 c 0
 391 439 332 518 197 556 c 1
 281 479 221 312 331 312 c 0
EndSplineSet
EndChar

StartChar: u1B000
Encoding: 110592 110592 13
Width: 740
Flags: HW
HStem: -45 84<100 228.791> 562 83<29 287 372 553>
VStem: 287 85<645 787> 553 86<342.835 562>
LayerCount: 2
Fore
SplineSet
100 -45 m 1
 100 39 l 1
 230 49 336 87 417 153 c 0
 506 225 552 345 553 515 c 1
 553 562 l 1
 29 562 l 1
 29 645 l 1
 287 645 l 1
 287 787 l 1
 372 787 l 1
 372 645 l 1
 639 645 l 1
 639 512 l 1
 637 324 585 185 482 97 c 0
 379 9 252 -38 100 -45 c 1
EndSplineSet
EndChar

StartChar: u1B001
Encoding: 110593 110593 14
Width: 848
Flags: HW
HStem: 44 73<286.418 423> 590 80<299.47 572.679>
VStem: 84 81<123.343 612.862> 113 86<-15 143.194 616.359 744> 666 93<309.441 501.748>
LayerCount: 2
Fore
SplineSet
193 744 m 1xe8
 174 612 165 487 165 370 c 0xe8
 165 253 176 124 199 -15 c 1
 113 -15 l 1xd8
 95 112 85 239 84 367 c 1
 85 485 94 611 110 744 c 1
 193 744 l 1xe8
285 120 m 1
 471 120 666 207 666 417 c 0
 666 456 654 526 578 566 c 0
 547 582 502 590 442 590 c 0
 382 590 330 581 285 563 c 1
 285 651 l 1
 326 664 380 670 448 670 c 0
 560 670 659 646 720 559 c 0
 746 522 759 474 759 417 c 0
 759 284 694 184 564 117 c 1
 612 116 658 112 703 107 c 1
 703 32 l 1
 578 40 485 44 423 44 c 0
 361 44 315 42 285 37 c 1
 285 120 l 1
EndSplineSet
EndChar

StartChar: u1B11F
Encoding: 110879 110879 15
Width: 791
Flags: HW
HStem: -43 90<331 380.307> 367 87<326 491 581 736> 661 87<346 491 581 716>
VStem: 95 82<124.147 616.824> 491 90<192.364 367 454 661>
LayerCount: 2
Fore
SplineSet
331 -43 m 1
 331 47 l 1
 437 79 490 163 491 367 c 1
 326 367 l 1
 326 454 l 1
 491 454 l 1
 491 661 l 1
 346 661 l 1
 346 748 l 1
 716 748 l 1
 716 661 l 1
 581 661 l 1
 581 454 l 1
 736 454 l 1
 736 367 l 1
 581 367 l 1
 581 247 559 92 456 10 c 0
 418 -20 376 -38 331 -43 c 1
204 744 m 1
 186 617 177 493 177 373 c 0
 177 253 188 124 211 -15 c 1
 124 -15 l 1
 106 123 96 250 95 367 c 0
 96 473 105 599 121 744 c 1
 204 744 l 1
EndSplineSet
EndChar

StartChar: u1B120
Encoding: 110880 110880 16
Width: 649
Flags: HW
VStem: 184 87<296 766>
LayerCount: 2
Fore
SplineSet
-24 -50 m 1
 -5 -13 85 127 184 220 c 1
 184 766 l 1
 271 766 l 1
 271 296 l 1
 371 375 482 440 605 491 c 1
 605 401 l 1
 464 340 342 259 240 158 c 0
 182 101 130 31 83 -50 c 1
 -24 -50 l 1
EndSplineSet
EndChar

StartChar: u1B121
Encoding: 110881 110881 17
Width: 712
Flags: HW
HStem: 7 88<41 342 429 649>
VStem: 342 87<95 477>
LayerCount: 2
Fore
SplineSet
637 822 m 1
 627 800 536 653 429 553 c 1
 429 95 l 1
 649 95 l 1
 649 7 l 1
 41 7 l 1
 41 95 l 1
 342 95 l 1
 342 477 l 1
 242 398 131 333 8 282 c 1
 8 372 l 1
 346 519 479 735 530 822 c 1
 637 822 l 1
EndSplineSet
EndChar

StartChar: u1B122
Encoding: 110882 110882 18
Width: 734
Flags: HW
HStem: -52 87<205.55 345.993> 383 82<43 367 454 671> 664 84<74 367 454 641>
VStem: 367 87<55.8718 383 465 664>
LayerCount: 2
Fore
SplineSet
278 -52 m 0
 250 -52 226 -50 205 -45 c 1
 202 41 l 1
 224 37 249 35 278 35 c 0
 307 35 329 41 344 54 c 0
 359 67 367 136 367 260 c 2
 367 383 l 1
 43 383 l 1
 43 465 l 1
 367 465 l 1
 367 664 l 1
 74 664 l 1
 74 748 l 1
 641 748 l 1
 641 664 l 1
 454 664 l 1
 454 465 l 1
 671 465 l 1
 671 383 l 1
 454 383 l 1
 454 254 l 2
 454 215 453 166 451 106 c 0
 449 46 436 7 413 -12 c 0
 380 -39 335 -52 278 -52 c 0
EndSplineSet
EndChar

StartChar: u1B132
Encoding: 110898 110898 19
Width: 638
Flags: HW
HStem: -45 77<210.735 539.042> 482 77<109 390>
VStem: 97 77<64.6621 178.713>
LayerCount: 2
Fore
SplineSet
397 401 m 1
 303 401 l 1
 390 482 l 1
 109 482 l 1
 109 559 l 1
 516 559 l 1
 516 500 l 1
 397 401 l 1
174 120 m 0
 174 70 190 37 335 32 c 0
 413 32 482 38 542 49 c 1
 542 -31 l 1
 476 -40 405 -45 328 -45 c 0
 139 -45 97 21 97 109 c 0
 97 154 116 195 154 232 c 1
 240 232 l 1
 196 188 174 151 174 120 c 0
EndSplineSet
EndChar

StartChar: u1B150
Encoding: 110928 110928 20
Width: 651
Flags: HW
HStem: -65 63<351.309 442.78> -28 76<106.927 167.186> 88 57<351.738 462.628> 496 74<91 311>
VStem: 29 71<51.0591 203.868> 290 56<3.21301 82.7588> 311 79<405.592 496> 494 72<126.212 274.045>
LayerCount: 2
Fore
SplineSet
375 403 m 1x7b
 433 396 566 363 566 200 c 0
 566 157 561 120 550 88 c 1
 558 82 568 73 579 62 c 1
 577 -23 l 1
 558 -6 541 10 525 23 c 1
 489 -47 442 -65 384 -65 c 0
 321 -65 290 -29 290 43 c 0xbd
 290 103 332 145 396 145 c 0
 427 145 458 138 489 125 c 1
 492 152 494 174 494 192 c 0
 494 274 450 322 363 335 c 1
 324 157 219 -28 134 -28 c 0
 93 -28 66 -16 51 10 c 0
 36 36 29 69 29 110 c 0
 29 187 57 254 112 312 c 0
 167 370 231 400 302 404 c 1
 307 438 310 469 311 496 c 1
 91 496 l 1
 91 570 l 1
 390 570 l 1
 388 509 383 454 375 403 c 1x7b
290 337 m 1
 192 325 100 221 100 116 c 0
 100 71 111 48 134 48 c 0x7d
 173 48 258 181 290 337 c 1
346 43 m 0
 346 13 362 -2 394 -2 c 0xbd
 426 -2 452 19 471 62 c 1
 440 79 414 88 391 88 c 0
 362 88 347 73 346 43 c 0
EndSplineSet
EndChar

StartChar: u1B151
Encoding: 110929 110929 21
Width: 668
Flags: HW
HStem: -56 70<284.308 442.995> -12 50<191.5 270.944> 243 51<186.654 299.547> 360 53<337.242 456.702> 509 67<101 383>
VStem: 111 69<177.032 234.969> 303 74<168.636 237.037> 496 76<208.769 325.277>
LayerCount: 2
Fore
SplineSet
572 274 m 0x7f
 572 236 557 97 343 97 c 0
 330 97 316 98 303 99 c 1
 270 72 235 48 198 28 c 1
 225 35 246 38 262 38 c 0x7f
 307 38 311 14 374 14 c 0
 399 14 427 23 460 40 c 1
 462 -26 l 1
 419 -46 386 -56 362 -56 c 0xbf
 292 -56 249 -12 195 -12 c 0
 188 -12 181 -13 174 -14 c 1
 49 -67 l 1
 49 6 l 1
 126 43 183 77 222 108 c 1
 137 129 111 156 111 195 c 0
 111 223 137 294 267 294 c 0
 340 294 377 271 377 224 c 0
 377 199 367 177 348 159 c 1
 401 164 439 176 462 196 c 0
 485 216 496 241 496 268 c 0
 496 329 448 360 352 360 c 0
 256 360 153 321 41 243 c 1
 41 323 l 1
 383 509 l 1
 101 507 l 1
 101 576 l 1
 490 576 l 1
 490 503 l 1
 335 410 l 1
 357 412 377 413 396 413 c 0
 513 413 572 367 572 274 c 0x7f
275 161 m 1
 294 182 303 198 303 209 c 0
 303 232 283 243 242 243 c 0
 201 243 180 229 180 200 c 0
 180 180 212 167 275 161 c 1
596 -71 m 1
 513 -71 l 1
 490 6 465 63 437 99 c 1
 527 100 l 1
 557 53 580 -4 596 -71 c 1
EndSplineSet
EndChar

StartChar: u1B152
Encoding: 110930 110930 22
Width: 630
Flags: HW
HStem: -61 75<239.328 512> 310 61<227.264 336.5> 443 74<45 191 295 496>
VStem: 152 76<26.7402 124.664> 242 79<529.098 600> 316 72<84 172>
LayerCount: 2
Fore
SplineSet
316 172 m 1xf4
 288 157 228 126 228 72 c 0
 228 32 253 13 304 14 c 2
 512 16 l 1
 512 -61 l 1
 297 -61 l 2
 214 -61 152 -17 152 57 c 0
 152 146 207 198 317 251 c 1
 313 298 298 310 268 310 c 0
 217 310 147 240 112 200 c 0
 94 180 71 154 42 123 c 1
 42 237 l 1
 73 267 133 325 191 443 c 1
 45 443 l 1
 45 517 l 1
 217 517 l 1
 229 550 237 577 242 600 c 1
 321 600 l 1xf8
 316 581 308 553 295 517 c 1
 496 517 l 1
 496 443 l 1
 273 443 l 1
 258 408 242 377 226 349 c 1
 258 364 286 371 310 371 c 0
 363 371 385 330 387 281 c 1
 472 322 529 348 557 358 c 1
 557 276 l 1
 504 257 448 232 388 201 c 1
 388 84 l 1
 316 84 l 1
 316 172 l 1xf4
EndSplineSet
EndChar

StartChar: u1B155
Encoding: 110933 110933 23
Width: 649
Flags: HW
HStem: -18 79<70 457> 472 79<70 457>
VStem: 457 81<61 472>
LayerCount: 2
Fore
SplineSet
538 -18 m 1
 70 -18 l 1
 70 61 l 1
 457 61 l 1
 457 472 l 1
 70 472 l 1
 70 551 l 1
 538 551 l 1
 538 -18 l 1
EndSplineSet
EndChar

StartChar: u1B164
Encoding: 110948 110948 24
Width: 638
Flags: HW
HStem: 71 81<27 120 194 369 451 550> 407 80<56 120 194 369 451 539>
VStem: 120 74<152 407> 369 82<-68 71 152 407 487 588>
LayerCount: 2
Fore
SplineSet
451 -68 m 1
 369 -68 l 1
 369 71 l 1
 27 71 l 1
 27 152 l 1
 120 152 l 1
 120 407 l 1
 56 407 l 1
 56 487 l 1
 369 487 l 1
 369 588 l 1
 451 588 l 1
 451 487 l 1
 539 487 l 1
 539 407 l 1
 451 407 l 1
 451 152 l 1
 550 152 l 1
 550 71 l 1
 451 71 l 1
 451 -68 l 1
194 407 m 1
 194 152 l 1
 369 152 l 1
 369 407 l 1
 194 407 l 1
EndSplineSet
EndChar

StartChar: u1B165
Encoding: 110949 110949 25
Width: 601
Flags: HW
HStem: -18 81<21 233 315 527> 470 81<37 436>
VStem: 233 82<63 207.927 284 364>
LayerCount: 2
Fore
SplineSet
516 448 m 1
 489 346 414 248 315 198 c 1
 315 63 l 1
 527 63 l 1
 527 -18 l 1
 21 -18 l 1
 21 63 l 1
 233 63 l 1
 233 364 l 1
 315 364 l 1
 315 284 l 1
 378 335 419 397 436 470 c 1
 37 470 l 1
 37 551 l 1
 516 551 l 1
 516 448 l 1
EndSplineSet
EndChar

StartChar: u1B166
Encoding: 110950 110950 26
Width: 600
Flags: HW
HStem: -36 83<88 164.069> 255 74<49 376> 483 77<33 418>
VStem: 418 82<336.576 483>
LayerCount: 2
Fore
SplineSet
88 -36 m 1
 88 47 l 1
 242 76 319 152 376 255 c 1
 49 255 l 1
 49 329 l 1
 403 329 l 1
 413 370 418 422 418 483 c 1
 33 483 l 1
 33 560 l 1
 500 560 l 1
 500 462 l 2
 500 282 434 33 88 -36 c 1
EndSplineSet
EndChar

StartChar: u1B167
Encoding: 110951 110951 27
Width: 584
Flags: HW
HStem: -40 83<23 122.54> 477 79<23 235>
VStem: 445 82<357.978 414>
LayerCount: 2
Fore
SplineSet
235 477 m 1
 23 477 l 1
 23 556 l 1
 235 556 l 1
 235 477 l 1
23 43 m 1
 105 48 342 99 445 414 c 1
 527 414 l 1
 493 243 317 -12 23 -40 c 1
 23 43 l 1
EndSplineSet
EndChar

StartChar: u2CEA2
Encoding: 183970 183970 28
Width: 1000
VWidth: 1050
Flags: H
LayerCount: 2
Fore
SplineSet
637 597 m 1
 744.684570312 433.6171875 884 116.134765625 884 -47 c 0
 884 -85.6669921875 875.333007812 -105 858 -105 c 0
 847.063476562 -105 825.9453125 -97.3525390625 824 -39 c 0
 822.666992188 48.3330078125 801.5 150.333007812 760.5 267 c 0
 719.5 383.666992188 670.666992188 488 614 580 c 1
 637 597 l 1
51 738 m 1
 877 738 l 1
 905 782 l 1
 973 730 l 2
 985.177734375 721.881835938 972.866210938 718 961 718 c 2
 132 718 l 2
 116.666992188 718 100.333007812 714 83 706 c 1
 51 738 l 1
86 -89 m 1
 183.794921875 33.5009765625 269.754882812 193.310546875 345 545 c 1
 327 604 l 1
 331 612 l 1
 435 560 l 2
 437.666992188 560 439 558.666992188 439 556 c 0
 439 553.333007812 437.666992188 550.666992188 435 548 c 0
 416.333007812 548 403 544 395 536 c 1
 316.762695312 221.092773438 253.93359375 58.1904296875 109 -108 c 1
 86 -89 l 1
EndSplineSet
EndChar

StartChar: u2CEA3
Encoding: 183971 183971 29
Width: 1000
VWidth: 1050
Flags: H
LayerCount: 2
Fore
SplineSet
244 810 m 1
 284 758 l 1
 720 758 l 1
 756 802 l 1
 808 750 l 2
 810.666992188 744.666992188 810.666992188 740.666992188 808 738 c 0
 808 735.333007812 805.333007812 734 800 734 c 2
 784 726 l 1
 784 300 l 1
 788 188 l 2
 788 158.666992188 770.666992188 144 736 144 c 1
 736 232 l 1
 292 232 l 1
 292 172 l 2
 289.333007812 145.333007812 272 130.666992188 240 128 c 1
 240 160 l 2
 242.666992188 189.333007812 244 230.666992188 244 284 c 2
 244 754 l 2
 241.333007812 770 236 784.666992188 228 798 c 1
 244 810 l 1
292 738 m 1
 292 252 l 1
 736 252 l 1
 736 738 l 1
 292 738 l 1
40 -46 m 1
 876 -46 l 1
 904 -2 l 1
 972 -54 l 2
 982.5625 -59.28125 976.725585938 -66 960 -66 c 2
 120 -66 l 2
 104 -66 88 -70 72 -78 c 1
 40 -46 l 1
EndSplineSet
EndChar

StartChar: u2CEA4
Encoding: 183972 183972 30
Width: 1000
VWidth: 1050
Flags: H
LayerCount: 2
Fore
SplineSet
91 643 m 1
 837 643 l 1
 865 687 l 1
 933 635 l 2
 943.5625 629.71875 937.725585938 623 921 623 c 2
 172 623 l 2
 156.666992188 623 140.333007812 619 123 611 c 1
 91 643 l 1
759 392 m 0
 797.193359375 343.951171875 891 225.935546875 891 133 c 0
 891 112.333007812 884 102 870 102 c 0
 852.666992188 102 840 120.666992188 832 158 c 0
 827.748046875 177.83984375 798.391601562 298.822265625 692 423.5 c 0
 670.666992188 448.5 642.333007812 479 607 515 c 1
 620 528 l 1
 674 482.666992188 720.333007812 437.333007812 759 392 c 0
86 113 m 1
 225.669921875 273.0390625 311 475.6484375 311 505 c 0
 311 516.333007812 306.333007812 525.666992188 297 533 c 1
 307 546 l 1
 399 506 l 2
 399.666992188 504.666992188 400 502.666992188 400 500 c 0
 400 484.189453125 360.069335938 488.139648438 349 466 c 0
 313.293945312 393.3125 223.016601562 209.534179688 95 102 c 1
 86 113 l 1
523 766 m 0
 540.333007812 744.666992188 549 727.333007812 549 714 c 0
 549 700.666992188 540.333007812 691 523 685 c 1
 508.333007812 685 500 693.666992188 498 711 c 0
 487.216796875 745.74609375 455.252929688 786.71875 378 826 c 1
 382 839 l 1
 448.666992188 821.666992188 495.666992188 797.333007812 523 766 c 0
734 -95 m 0
 734 -80.7412109375 734 -60 722 -30 c 0
 718.111328125 -30.302734375 406.173828125 -55.9658203125 334 -70 c 0
 298 -76.6669921875 269 -88.6669921875 247 -106 c 1
 214 -36 l 1
 243.333007812 -32 265.333007812 -23.3330078125 280 -10 c 0
 350.666992188 60.6669921875 411 160.666992188 461 290 c 0
 463.666992188 298 465 303.333007812 465 306 c 0
 465 313.333007812 461.333007812 321.666992188 454 331 c 1
 464 341 l 1
 549 291 l 1
 549 275 l 2
 549 271.262695312 535.579101562 280 524 280 c 0
 514 280 506.333007812 275 501 265 c 0
 487.330078125 235.783203125 396.111328125 45.6943359375 300 -36 c 1
 405.333007812 -25.3330078125 541.333007812 -15 708 -5 c 1
 678 47 641.666992188 99.6669921875 599 153 c 1
 608 163 l 1
 645.279296875 129.271484375 729.771484375 49.3818359375 769 -16 c 0
 780.333007812 -34.6669921875 786 -55.3330078125 786 -78 c 0
 786 -100.69921875 776.0234375 -121 759 -121 c 0
 752.28125 -121 734 -118.8125 734 -95 c 0
EndSplineSet
EndChar

StartChar: u2CEA5
Encoding: 183973 183973 31
Width: 1000
VWidth: 1050
Flags: H
LayerCount: 2
Fore
SplineSet
480 -126 m 1
 480 -81.25390625 489 -20.7958984375 489 15 c 2
 489 57 l 1
 136 57 l 2
 116 57 101.333007812 53 92 45 c 1
 58 77 l 1
 489 77 l 1
 489 207 l 1
 278 207 l 1
 278 185 l 2
 278 159 260 143 224 137 c 1
 227 276 l 1
 230 514 l 1
 225.333007812 532 220 546.666992188 214 558 c 1
 226 570 l 1
 267 523 l 1
 739 523 l 1
 772 563 l 1
 821 514 l 2
 827.666992188 510 829.333007812 506.333007812 826 503 c 0
 826 499 823.666992188 497 819 497 c 2
 799 491 l 1
 799 336 l 1
 804 216 l 2
 804.666992188 214 805 210.666992188 805 206 c 0
 805 184 788.333007812 173 755 173 c 1
 755 207 l 1
 531 207 l 1
 531 77 l 1
 874 77 l 1
 909 117 l 1
 979 69 l 2
 988.333007812 61 989 57 981 57 c 2
 531 57 l 1
 531 -6 l 1
 537 -78 l 2
 537 -102 518 -118 480 -126 c 1
278 373 m 1
 755 373 l 1
 755 503 l 1
 278 503 l 1
 278 373 l 1
755 357 m 1
 278 357 l 1
 278 227 l 1
 755 227 l 1
 755 357 l 1
91 653 m 1
 817 653 l 1
 845 697 l 1
 913 645 l 2
 923.5625 639.71875 917.725585938 633 901 633 c 2
 172 633 l 2
 156.666992188 633 140.333007812 629 123 621 c 1
 91 653 l 1
523 766 m 0
 540.333007812 744.666992188 549 727.333007812 549 714 c 0
 549 700.666992188 540.333007812 691 523 685 c 1
 508.333007812 685 500 693.666992188 498 711 c 0
 487.216796875 745.74609375 455.252929688 786.71875 378 826 c 1
 382 839 l 1
 448.666992188 821.666992188 495.666992188 797.333007812 523 766 c 0
EndSplineSet
EndChar

StartChar: u2CEA6
Encoding: 183974 183974 32
Width: 1000
VWidth: 1050
Flags: H
LayerCount: 2
Fore
SplineSet
291 570 m 1
 326 523 l 1
 659 523 l 1
 695 562 l 1
 746 515 l 2
 748 510.333007812 748 506 746 502 c 0
 746 500 743.333007812 499 738 499 c 2
 721 491 l 1
 721 397 l 1
 727 286 l 2
 727 258 710.666992188 244 678 244 c 1
 678 315 l 1
 334 315 l 1
 334 267 l 2
 334 243 318.666992188 228.666992188 288 224 c 1
 288 259 l 2
 288 277 289 300.333007812 291 329 c 2
 291 519 l 2
 291 528.333007812 286 541.666992188 276 559 c 1
 291 570 l 1
93 216 m 1
 131 170 l 1
 370 170 l 1
 405 208 l 1
 455 162 l 2
 457.666992188 159.333007812 459 156.333007812 459 153 c 0
 459 147.666992188 455.333007812 143.333007812 448 140 c 2
 432 134 l 1
 432 17 l 1
 435 -45 l 2
 435 -71.6669921875 419.666992188 -86.3330078125 389 -89 c 1
 389 -31 l 1
 139 -31 l 1
 139 -78 l 2
 139 -100 122 -114.333007812 88 -121 c 1
 91.3330078125 -94.3330078125 93.3330078125 -57.3330078125 94 -10 c 2
 96 162 l 2
 96 176 89.6669921875 190.333007812 77 205 c 1
 93 216 l 1
562 216 m 1
 601 170 l 1
 838 170 l 1
 873 208 l 1
 924 162 l 2
 926 158 927 154.666992188 927 152 c 0
 927 146.666992188 924 143 918 141 c 2
 900 134 l 1
 900 17 l 1
 904 -45 l 2
 904 -71.6669921875 888.666992188 -86.3330078125 858 -89 c 1
 858 -31 l 1
 608 -31 l 1
 608 -78 l 2
 608 -100 591 -114.333007812 557 -121 c 1
 560.333007812 -94.3330078125 562.333007812 -57.3330078125 563 -10 c 2
 565 162 l 2
 563 178 556.666992188 192.333007812 546 205 c 1
 562 216 l 1
334 334 m 1
 678 334 l 1
 678 502 l 1
 334 502 l 1
 334 334 l 1
139 -19 m 1
 389 -19 l 1
 389 151 l 1
 139 151 l 1
 139 -19 l 1
608 -19 m 1
 858 -19 l 1
 858 151 l 1
 608 151 l 1
 608 -19 l 1
81 653 m 1
 827 653 l 1
 855 697 l 1
 923 645 l 2
 933.5625 639.71875 927.725585938 633 911 633 c 2
 162 633 l 2
 146.666992188 633 130.333007812 629 113 621 c 1
 81 653 l 1
523 766 m 0
 540.333007812 744.666992188 549 727.333007812 549 714 c 0
 549 700.666992188 540.333007812 691 523 685 c 1
 508.333007812 685 500 693.666992188 498 711 c 0
 487.216796875 745.74609375 455.252929688 786.71875 378 826 c 1
 382 839 l 1
 448.666992188 821.666992188 495.666992188 797.333007812 523 766 c 0
EndSplineSet
EndChar

StartChar: u2CEA7
Encoding: 183975 183975 33
Width: 1000
VWidth: 1050
Flags: H
LayerCount: 2
Fore
SplineSet
210 727 m 0
 271.69140625 684.213867188 308.340820312 649.666992188 353 572 c 1
 361 548 365 528.666992188 365 514 c 0
 365 493.333007812 357.333007812 480.333007812 342 475 c 0
 329.333007812 470.333007812 320.333007812 484.666992188 315 518 c 0
 310.333007812 545.333007812 298.666992188 577.666992188 280 615 c 1
 258 647.666992188 225.666992188 687.666992188 183 735 c 1
 195 746 l 1
 201.666992188 736.666992188 206.666992188 730.333007812 210 727 c 0
701 611 m 0
 725.666992188 661.666992188 740 692.666992188 744 704 c 0
 744 714 740 724.333007812 732 735 c 1
 740 743 l 1
 821 700 l 2
 826.333007812 694.666992188 827.666992188 690.666992188 825 688 c 0
 825 685.333007812 821 684 813 684 c 0
 800.333007812 684 789 679 779 669 c 1
 737 589 685.333007812 508.333007812 624 427 c 1
 597 426 l 1
 641 497.333007812 675.666992188 559 701 611 c 0
661 -32 m 0
 674.70703125 -38.396484375 701.713867188 -51 781 -51 c 0
 842.619140625 -51 887.489257812 -41.064453125 893 -8 c 2
 896 42 l 1
 902 114 l 1
 904 143 l 1
 920 143 l 1
 920 34 l 2
 920 6 930.333007812 -13.3330078125 951 -24 c 1
 923.17578125 -77.66015625 893.638671875 -84.810546875 817 -87 c 1
 781 -90 l 2
 737 -90 701 -86 673 -78 c 0
 621 -68 596.333007812 -32 599 30 c 2
 599 373 l 1
 405 373 l 1
 405 363.120117188 404.482421875 257.434570312 382 175 c 0
 331.577148438 -21.291015625 169.198242188 -84.228515625 50 -113 c 1
 46 -101 l 1
 145.159179688 -67.947265625 310.486328125 10.6728515625 340 173 c 1
 348.666992188 191.666992188 356.333007812 258.333007812 363 373 c 1
 151 373 l 2
 149 373.666992188 146 374 142 374 c 0
 131.333007812 374 120 370 108 362 c 1
 77 393 l 1
 831 393 l 1
 865 443 l 1
 939 389 l 1
 950.333007812 372 941.052734375 372 937 372 c 0
 933.666992188 372.666992188 930.333007812 373 927 373 c 2
 645 373 l 1
 645 22 l 2
 645 -6 650.333007812 -24 661 -32 c 0
EndSplineSet
EndChar

StartChar: u2CEA8
Encoding: 183976 183976 34
Width: 1000
VWidth: 1050
Flags: H
LayerCount: 2
Fore
SplineSet
807 443 m 1
 862 388 l 2
 865.333007812 383.333007812 865.333007812 379.333007812 862 376 c 0
 862 374 859.333007812 373 854 373 c 2
 839 365 l 1
 839 66 l 1
 842 -56 l 2
 842 -80.6669921875 825 -96.3330078125 791 -103 c 1
 791 -21 l 1
 239 -21 l 1
 239 -80 l 2
 239 -100.666992188 222 -115 188 -123 c 1
 192.666992188 -65.6669921875 195 -8 195 50 c 2
 195 373 l 2
 195 385 192.666992188 395.666992188 188 405 c 1
 150 362.333007812 103 317.666992188 47 271 c 1
 37 280 l 1
 169 414 263.333007812 555 320 703 c 0
 340 755.666992188 350.333007812 786 351 794 c 0
 350.333007812 802 344.666992188 808.666992188 334 814 c 1
 346 825 l 1
 425 794 l 1
 436.69140625 783.978515625 414.14453125 788.924804688 391 764 c 1
 379.661132812 728.56640625 378.428710938 724.713867188 351 663 c 1
 742 663 l 1
 782 694 l 1
 833 639 l 2
 833.666992188 637.666992188 834 635.666992188 834 633 c 0
 834 628.333007812 830.666992188 626 824 626 c 0
 811.333007812 626 801 625.333007812 793 624 c 1
 777 609 l 2
 665.453125 503.030273438 618.50390625 462.06640625 530 396 c 1
 767 396 l 1
 807 443 l 1
239 -1 m 1
 479 -1 l 1
 479 376 l 1
 239 376 l 1
 239 -1 l 1
227 396 m 1
 491 396 l 1
 567.989257812 462.26953125 617.392578125 505.481445312 750 643 c 1
 340 643 l 1
 291 552 l 2
 267.666992188 508 238 464.333007812 202 421 c 1
 227 396 l 1
791 -1 m 1
 791 376 l 1
 523 376 l 1
 523 -1 l 1
 791 -1 l 1
EndSplineSet
EndChar

StartChar: u2CEA9
Encoding: 183977 183977 35
Width: 1000
VWidth: 1050
Flags: H
LayerCount: 2
Fore
SplineSet
466 783 m 2
 468 793.666992188 458.666992188 808 438 826 c 1
 446 838 l 1
 536 803 l 2
 544 800.333007812 547 797.666992188 545 795 c 0
 529 790.333007812 518.333007812 784 513 776 c 1
 513 620 l 1
 856 620 l 1
 891 664 l 1
 966 612 l 2
 971.333007812 606.666992188 973 602.666992188 971 600 c 2
 513 600 l 1
 513 386 l 1
 767 386 l 1
 807 433 l 1
 862 378 l 2
 864.666992188 372.666992188 864.666992188 368.666992188 862 366 c 0
 862 364 859.333007812 363 854 363 c 2
 839 355 l 1
 839 86 l 1
 842 -56 l 2
 842 -80 825 -95.6669921875 791 -103 c 1
 791 -21 l 1
 239 -21 l 1
 239 -80 l 2
 239 -100.666992188 222 -115 188 -123 c 1
 190.666992188 -86.3330078125 193 -28.6669921875 195 50 c 2
 195 363 l 2
 195 383.666992188 187.333007812 402 172 418 c 1
 184 430 l 1
 227 386 l 1
 466 386 l 1
 466 783 l 2
239 -1 m 1
 791 -1 l 1
 791 169 l 1
 239 169 l 1
 239 -1 l 1
239 189 m 1
 791 189 l 1
 791 366 l 1
 239 366 l 1
 239 189 l 1
EndSplineSet
EndChar

StartChar: u2CEAA
Encoding: 183978 183978 36
Width: 1000
VWidth: 1050
Flags: H
LayerCount: 2
Fore
SplineSet
424 781 m 1
 464 750 l 1
 843 750 l 1
 874 789 l 1
 925 742 l 2
 930.333007812 736.666992188 931.666992188 732.666992188 929 730 c 0
 929 724.666992188 926.333007812 722 921 722 c 2
 902 714 l 1
 902 560 l 1
 907 497 l 2
 909 467.666992188 894 453 862 453 c 1
 862 501 l 1
 476 501 l 1
 476 489 l 2
 476 464.333007812 458.666992188 449.666992188 424 445 c 1
 430 514 l 1
 432 540 l 1
 432 730 l 2
 428.666992188 745.333007812 422 758.666992188 412 770 c 1
 424 781 l 1
633 489 m 1
 712 453 l 2
 732.150390625 446.283203125 704.215820312 444.693359375 693 426 c 1
 693 354 l 1
 803 354 l 1
 839 397 l 1
 906 350 l 1
 911.333007812 341.333007812 914 336 914 334 c 0
 912.666992188 332.666992188 910.333007812 332 907 332 c 2
 894 334 l 1
 693 334 l 1
 693 205 l 1
 882 205 l 1
 914 248 l 1
 981 201 l 1
 986.333007812 192.333007812 989 187 989 185 c 0
 987.666992188 183.666992188 985.666992188 183 983 183 c 2
 973 185 l 1
 458 185 l 2
 440.666992188 185 426.333007812 181 415 173 c 1
 379 205 l 1
 649 205 l 1
 649 334 l 1
 483 334 l 2
 465.666992188 334 451.333007812 330 440 322 c 1
 404 354 l 1
 649 354 l 1
 649 438 l 2
 649 444.666992188 641.333007812 457.666992188 626 477 c 1
 633 489 l 1
623 -52 m 2
 563 -60 521 -64 497 -64 c 0
 475 -67.3330078125 450 -77.6669921875 422 -95 c 1
 391 -32 l 1
 438.502929688 -25.5810546875 454.8828125 -19.3046875 515 38.5 c 0
 541 63.5 568 92.6669921875 596 126 c 0
 601.333007812 132 604 139 604 147 c 0
 604 155 601.333007812 162.333007812 596 169 c 1
 608 181 l 1
 683 134 l 2
 691.666992188 128.666992188 691.666992188 126 683 126 c 0
 663.666992188 122.666992188 648 116 636 106 c 2
 578 57 l 2
 538 21.6669921875 505.666992188 -5.3330078125 481 -24 c 1
 600.333007812 -19.3330078125 724.333007812 -15.3330078125 853 -12 c 1
 833.666992188 12 807.333007812 42 774 78 c 1
 777 90 l 1
 881 28.6669921875 933 -27.3330078125 933 -78 c 0
 933 -107.631835938 914.603515625 -114.651367188 900 -111 c 0
 893.333007812 -107 888 -95.3330078125 884 -76 c 0
 883.905273438 -75.58984375 879.859375 -58.1484375 871 -36 c 1
 770 -40 l 1
 623 -52 l 2
758 520 m 1
 862 520 l 1
 862 730 l 1
 758 730 l 1
 758 520 l 1
581 730 m 1
 476 730 l 1
 476 520 l 1
 581 520 l 1
 581 730 l 1
722 730 m 1
 617 730 l 1
 617 520 l 1
 722 520 l 1
 722 730 l 1
215 600 m 2
 214.107421875 601.78515625 178.290039062 668.590820312 88 754 c 1
 103 774 l 1
 176.333007812 696.666992188 221.333007812 646.333007812 238 623 c 1
 270 665 l 2
 304 714.333007812 318.333007812 741.666992188 313 747 c 0
 305 760.333007812 301 768.333007812 301 771 c 2
 309 779 l 1
 396 712 l 2
 398.666992188 706.666992188 397.333007812 704 392 704 c 0
 379.333007812 706.666992188 363.666992188 701.333007812 345 688 c 0
 334.333007812 677.333007812 325 667 317 657 c 2
 258 592 l 1
 305 497 l 1
 339.666992188 411 357 309.666992188 357 193 c 1
 349 118 l 2
 346.333007812 91.3330078125 342.333007812 66.3330078125 337 43 c 0
 305.026367188 -36.3828125 256.044921875 -95.0791015625 183 -115 c 1
 180.333007812 -78.3330078125 141 -56 65 -48 c 1
 69 -32 l 1
 126.333007812 -40 167 -44 191 -44 c 0
 270.58203125 -35.623046875 293.840820312 57.365234375 302 90 c 0
 307.333007812 126.666992188 310 169.666992188 310 219 c 0
 310 261 308.333007812 298.333007812 305 331 c 0
 303 331 302 335 302 343 c 0
 298.666992188 355 294.666992188 374.666992188 290 402 c 1
 270.525390625 362.422851562 226.118164062 281.28125 159 209 c 0
 136.333007812 180.333007812 97 144.666992188 41 102 c 1
 33 114 l 1
 109.666992188 190.666992188 170.333007812 268.333007812 215 347 c 0
 230.333007812 371.666992188 250 412.333007812 274 469 c 1
 266 490.333007812 252.666992188 523.333007812 234 568 c 1
 226 560 l 2
 188 520 130.333007812 474 53 422 c 1
 45 434 l 1
 119.666992188 501.333007812 172.333007812 551.333007812 203 584 c 1
 215 600 l 2
EndSplineSet
EndChar

StartChar: u2CEAB
Encoding: 183979 183979 37
Width: 1000
VWidth: 1050
Flags: H
LayerCount: 2
Fore
SplineSet
847 785 m 1
 855 790 931 764 931 762 c 1
 931 761 928.333007812 759.666992188 917 755 c 2
 903 744 l 1
 903 721 l 2
 903 710.333007812 904.333007812 696 907 678 c 2
 910 645 l 1
 905.333007812 636.333007812 888.333007812 631.333007812 859 630 c 2
 856 630 l 2
 851.333007812 630 850 631.666992188 852 635 c 2
 852 651 l 1
 204 651 l 1
 188 639 l 2
 180 635 174.666992188 633.333007812 172 634 c 0
 170 632.666992188 164.333007812 634.333007812 155 639 c 1
 147 652 l 2
 137.666992188 663.333007812 133.666992188 669.666992188 135 671 c 0
 135 676 147.666992188 680.22265625 153 682 c 1
 153 724 l 2
 153.666992188 732 152 744.333007812 148 761 c 2
 146 787 l 2
 146 787.666992188 146.166992188 788 146.5 788 c 2
 149 788 l 2
 153.666992188 788 161.333007812 786.333007812 172 783 c 2
 211 767 l 2
 226.876953125 762.463867188 232.651367188 760.651367188 230 758 c 1
 231 758 l 1
 231 757.333007812 226.666992188 755 218 751 c 2
 204 738 l 1
 204 675 l 1
 495 675 l 1
 495 758 l 2
 494.333007812 759.333007812 494 763.666992188 494 771 c 2
 493 783 l 1
 492 812 l 1
 490 817 l 2
 490 818.899414062 493.313476562 819.137695312 494 819 c 0
 524 813 574 795 574 789 c 0
 574 788 573.735351562 787.44140625 573 787 c 2
 563 781 l 1
 547 769 l 1
 547 675 l 1
 852 675 l 1
 852 737 l 1
 851 751 l 2
 849.666992188 773 848.333007812 784.333007812 847 785 c 1
176 128 m 1
 176 -32 l 1
 328 -32 l 1
 328 128 l 1
 176 128 l 1
570 140 m 1
 610 93.3330078125 650.666992188 58.6669921875 692 36 c 1
 733.333007812 64 772.666992188 98.6669921875 810 140 c 1
 570 140 l 1
368 -124 m 0
 358.666992188 -122 361.333007812 -116.666992188 376 -108 c 1
 541.612304688 -69.5966796875 655.502929688 10.2236328125 658 12 c 1
 619.918945312 46.2734375 593.3125 76.837890625 548 140 c 1
 502 140 l 1
 482 130 l 1
 440 164 l 1
 822 164 l 1
 840 184 l 2
 842.666992188 188.666992188 846 191 850 191 c 0
 854 191 858 188 862 182 c 2
 904 146 l 2
 911.333007812 140.666992188 915 135.666992188 915 131 c 0
 915 127.666992188 911.333007812 125.333007812 904 124 c 2
 878 120 l 1
 813.333007812 68 766 30.6669921875 736 8 c 1
 820.666992188 -34.6669921875 908.666992188 -54 1000 -50 c 0
 1008 -53.3330078125 1008 -57.3330078125 1000 -62 c 0
 968.666992188 -70.6669921875 947.333007812 -86 936 -108 c 0
 935.333007812 -113.333007812 930.666992188 -116.666992188 922 -118 c 0
 852.666992188 -102.666992188 777.333007812 -69.3330078125 696 -18 c 1
 588.014648438 -80.6005859375 453.965820312 -113.38671875 368 -124 c 0
334 -86 m 0
 329.333007812 -86.6669921875 327.333007812 -86 328 -84 c 2
 328 -54 l 1
 176 -54 l 1
 176 -74 l 1
 171.333007812 -92.6669921875 154.666992188 -103.333007812 126 -106 c 0
 123.333007812 -107.333007812 121.333007812 -105.333007812 120 -100 c 2
 122 -59 l 1
 124 2 l 1
 124 101 l 1
 122 134 l 1
 121 182 l 1
 120 190 l 2
 120 192 120.333007812 193.333007812 121 194 c 0
 121 194.666992188 121.333007812 194.666992188 122 194 c 1
 121.333007812 196.666992188 126.666992188 192.666992188 138 182 c 2
 182 152 l 1
 306 152 l 1
 336 180 l 2
 341.333007812 185.333007812 345 188 347 188 c 2
 348 188 l 2
 349.333007812 191.333007812 354.666992188 188 364 178 c 2
 398 152 l 2
 408 143.333007812 413 137.666992188 413 135 c 0
 413 134.333007812 412.666992188 134 412 134 c 1
 413.333007812 130 408.666992188 124.666992188 398 118 c 2
 380 104 l 1
 380 58 l 2
 380 46.6669921875 380.666992188 22.3330078125 382 -15 c 2
 384 -52 l 1
 381.07421875 -72.4775390625 353.361328125 -86 334 -86 c 0
166 246 m 1
 144 236 l 1
 102 270 l 1
 290 270 l 1
 316 296 l 2
 322.666992188 301.333007812 327 304 329 304 c 2
 330 304 l 1
 331.333007812 308 337.333007812 304.666992188 348 294 c 2
 380 270 l 2
 391.333007812 260.666992188 397 254.666992188 397 252 c 2
 396 250 l 1
 398.666992188 246 395.333007812 244.666992188 386 246 c 2
 166 246 l 1
686 256 m 1
 686 318 l 1
 548 318 l 1
 548 256 l 1
 686 256 l 1
686 342 m 1
 686 404 l 1
 548 404 l 1
 548 342 l 1
 686 342 l 1
166 350 m 1
 144 340 l 1
 102 374 l 1
 296 374 l 1
 316 396 l 2
 321.333007812 402.666992188 326.333007812 407 331 409 c 2
 332 409 l 1
 332 408 l 1
 332.666992188 412 340 408.666992188 354 398 c 2
 384 376 l 2
 396.666992188 367.333007812 403 360.666992188 403 356 c 2
 402 354 l 1
 404.666992188 350 401.333007812 348.666992188 392 350 c 2
 166 350 l 1
686 490 m 1
 552 490 l 1
 552 428 l 1
 686 428 l 1
 686 490 l 1
128 458 m 1
 106 448 l 1
 66 482 l 1
 324 482 l 1
 348 506 l 2
 354 516 358.333007812 521 361 521 c 2
 362 521 l 1
 362 520 l 1
 362 522.666992188 370 517.333007812 386 504 c 2
 412 484 l 2
 427.333007812 472.666992188 435 466.333007812 435 465 c 0
 435 464.333007812 434.666992188 464 434 464 c 1
 436 460 434 458 428 458 c 2
 128 458 l 1
760 549 m 0
 760 538.333007812 752.666992188 526.666992188 738 514 c 1
 864 514 l 1
 884 538 l 2
 889.333007812 544.666992188 894.333007812 549 899 551 c 2
 900 551 l 1
 900 550 l 1
 900.666992188 552.666992188 906.666992188 549.333007812 918 540 c 2
 950 512 l 2
 961.333007812 502.666992188 967 497 967 495 c 0
 967 494.333007812 966.666992188 494 966 494 c 1
 968.666992188 490 965.333007812 488.666992188 956 490 c 2
 736 490 l 1
 736 428 l 1
 816 428 l 1
 842 454 l 2
 847.333007812 459.333007812 851 462 853 462 c 2
 854 462 l 2
 854.666992188 464.666992188 860.666992188 461.333007812 872 452 c 2
 902 428 l 2
 913.333007812 416.666992188 919 410.333007812 919 409 c 0
 919 408.333007812 918.666992188 408 918 408 c 1
 920.666992188 404 917.333007812 402.666992188 908 404 c 2
 736 404 l 1
 736 342 l 1
 814 342 l 1
 840 372 l 2
 844 378 847.333007812 381 850 381 c 2
 852 380 l 1
 852.666992188 382.666992188 858.666992188 379.333007812 870 370 c 2
 902 342 l 2
 913.333007812 332.666992188 919 327 919 325 c 0
 919 324.333007812 918.666992188 324 918 324 c 1
 920 320 918 318 912 318 c 2
 736 318 l 1
 736 256 l 1
 876 256 l 1
 906 286 l 2
 913.333007812 293.333007812 917.333007812 296.666992188 918 296 c 1
 920 298.666992188 926 295.333007812 936 286 c 2
 970 256 l 2
 981.333007812 246.666992188 987 241 987 239 c 0
 987 238.333007812 986.666992188 238 986 238 c 1
 988 234 984.666992188 232 976 232 c 2
 548 232 l 1
 548 210 l 1
 543.333007812 191.333007812 526.666992188 180.666992188 498 178 c 0
 493.333007812 177.333007812 491.333007812 179.333007812 492 184 c 2
 494 232 l 2
 495.333007812 284 496 318 496 334 c 2
 496 442 l 1
 430 378 l 2
 422 374.666992188 417.333007812 373 416 373 c 0
 414 373 413 374 413 376 c 2
 418 388 l 1
 491.678710938 480.780273438 549.377929688 605.510742188 550 608 c 0
 552 608.666992188 554 608 556 606 c 2
 622 562 l 2
 624.666992188 559.333007812 626 556.666992188 626 554 c 0
 626 550.666992188 623.333007812 548 618 546 c 2
 590 546 l 1
 560 514 l 1
 716 514 l 1
 701.333007812 554.666992188 677.333007812 588 644 614 c 0
 639.333007812 620.666992188 642.666992188 624 654 624 c 0
 691.419921875 614.427734375 760 583.805664062 760 549 c 0
296 556 m 1
 294.666992188 527.333007812 283.333007812 510.666992188 262 506 c 0
 243.428710938 503.936523438 256.427734375 554.295898438 184 622 c 1
 181.333007812 630 183 634 189 634 c 0
 208.161132812 629.7421875 288.66796875 595.799804688 296 556 c 1
EndSplineSet
EndChar

StartChar: u2CEAC
Encoding: 183980 183980 38
Width: 1000
VWidth: 1050
Flags: H
LayerCount: 2
Fore
SplineSet
536 625 m 1
 559.479492188 606.78515625 603.822265625 565.940429688 598 564 c 1
 599 562 l 2
 599 559.333007812 595.666992188 558.666992188 589 560 c 2
 341 560 l 1
 315.666992188 542.666992188 296.333007812 530.333007812 283 523 c 1
 319 499 347 471.333007812 367 440 c 1
 403.666992188 464.666992188 442.666992188 497 484 537 c 0
 487.333007812 539 491 539 495 537 c 2
 533 488 l 1
 535 482 l 2
 535 478.666992188 532.333007812 477 527 477 c 0
 521 477 515 478.333007812 509 481 c 1
 413 444 l 1
 475.20703125 384.557617188 515.72265625 365.54296875 596 353 c 0
 599.333007812 351 601 349 601 347 c 0
 601 345 599.333007812 343 596 341 c 0
 574 344.333007812 554.666992188 334 538 310 c 0
 535.333007812 302.666992188 530.666992188 300.666992188 524 304 c 0
 482.666992188 333.333007812 440.333007812 376.666992188 397 434 c 1
 376 424 l 1
 382.666992188 399.333007812 386 378.666992188 386 362 c 0
 386.666992188 360.666992188 387 355.666992188 387 347 c 0
 387 339.564453125 385.49609375 243.610351562 308 235 c 1
 302 260.333007812 278.666992188 279 238 291 c 0
 234 295.666992188 232 299 232 301 c 0
 232 303 234 304 238 304 c 0
 286.364257812 295.939453125 297.416992188 295 315 295 c 0
 332.333007812 295 341 318 341 364 c 2
 341 371 l 1
 339 390 l 1
 243 343.333007812 159.333007812 312.333007812 88 297 c 0
 77.3330078125 298.333007812 72 300 72 302 c 0
 72 302.666992188 75 305.333007812 81 310 c 0
 172.333007812 344.666992188 255 383.333007812 329 426 c 1
 327 435.333007812 322.333007812 445 315 455 c 1
 229 418.333007812 161.333007812 397.333007812 112 392 c 0
 104 392.666992188 100 394.333007812 100 397 c 0
 100 399 102.333007812 401.666992188 107 405 c 0
 141 413 202.666992188 440 292 486 c 1
 276.666992188 500 265.666992188 509 259 513 c 1
 196.333007812 490.333007812 147.333007812 475.666992188 112 469 c 0
 104 470.333007812 100 472 100 474 c 0
 100 485.34765625 170.74609375 498.048828125 255 560 c 1
 126 560 l 1
 107 550 l 1
 70 581 l 1
 386 581 l 1
 402 639 l 1
 205 639 l 1
 194 624 l 2
 190.666992188 618.666992188 187.333007812 616 184 616 c 0
 180.666992188 616 177.666992188 617.333007812 175 620 c 2
 144 645 l 2
 140.666992188 650.333007812 139 654 139 656 c 0
 139 659.333007812 140.666992188 662 144 664 c 2
 163 676 l 1
 186 765 l 1
 196 811 l 2
 196.666992188 817.666992188 197.333007812 821 198 821 c 2
 201 825 l 1
 202 825 l 2
 204 825 209.666992188 823 219 819 c 2
 255 804 l 2
 262.333007812 801.333007812 266 798.333007812 266 795 c 0
 266 792.333007812 263 788.666992188 257 784 c 2
 241 779 l 1
 233 753 l 1
 416 753 l 1
 434 779 l 2
 436.666992188 786.333007812 440 790 444 790 c 0
 447.333007812 790 450.333007812 788.666992188 453 786 c 2
 488 755 l 2
 491.333007812 751 493 747.333007812 493 744 c 0
 493 740.666992188 490.666992188 737.333007812 486 734 c 2
 467 724 l 1
 430 581 l 1
 498 581 l 1
 523 614 l 2
 527.666992188 622.666992188 531.666992188 626 535 624 c 1
 535 625 l 1
 536 625 l 1
423 732 m 1
 226 732 l 1
 208 661 l 1
 407 661 l 1
 423 732 l 1
213 52 m 0
 221.5390625 52 310.974609375 -1.9794921875 302 -39 c 1
 300.024414062 -71.5947265625 285.168945312 -74.56640625 273 -77 c 0
 268.333007812 -77 265.333007812 -73.3330078125 264 -66 c 0
 260.666992188 -51.3330078125 256 -35.3330078125 250 -18 c 1
 202 -30 142.666992188 -46 72 -66 c 1
 53 -76 l 2
 53 -77.3330078125 52.6669921875 -78 52 -78 c 0
 50 -78 45.6669921875 -73.3330078125 39 -64 c 2
 16 -37 l 2
 10 -33 7.6669921875 -29.3330078125 9 -26 c 2
 8 -24 l 2
 8 -19.2626953125 13.72265625 -18 30 -18 c 2
 143 -8 l 1
 143 79 l 1
 91 79 l 1
 91 69 l 1
 87 55.6669921875 74.6669921875 48 54 46 c 0
 53.3330078125 45.3330078125 51.6669921875 47.3330078125 49 52 c 0
 49.6669921875 53.3330078125 50 64.6669921875 50 86 c 2
 51 121 l 1
 51 129 l 2
 51.6669921875 157.666992188 51 183.333007812 49 206 c 2
 47 224 l 2
 47 226.666992188 47.6669921875 227.333007812 49 226 c 1
 49 227.333007812 53 225.333007812 61 220 c 2
 101 197 l 1
 145 197 l 1
 144 282 l 1
 143 290 l 2
 143 292.666992188 143.666992188 293.333007812 145 292 c 2
 146 292 l 2
 148 292 152.333007812 290.666992188 159 288 c 2
 199 272 l 2
 199.1484375 271.975585938 216.157226562 268.157226562 211 263 c 1
 212 263 l 1
 212 262 l 2
 212 261.333007812 209 259 203 255 c 2
 185 241 l 1
 185 197 l 1
 225 197 l 1
 239 216 l 2
 244.333007812 224 249.333007812 228 254 228 c 0
 258 228 262 225.333007812 266 220 c 2
 288 197 l 2
 294.666992188 191.666992188 298 187 298 183 c 0
 298 179 295.333007812 175.333007812 290 172 c 2
 276 160 l 1
 277 119 l 2
 277 95 277.333007812 81.6669921875 278 79 c 0
 272 65 259.666992188 57.3330078125 241 56 c 0
 237 55.3330078125 235.333007812 57 236 61 c 2
 236 79 l 1
 185 79 l 1
 185 -6 l 1
 243 -3 l 1
 233.666992188 13.6669921875 224.333007812 27.3330078125 215 38 c 1
 211 50 l 2
 211 51.3330078125 211.666992188 52 213 52 c 0
495 59 m 0
 503.291015625 59 593.005859375 5.1474609375 584 -32 c 1
 582.024414062 -64.5947265625 567.168945312 -67.56640625 555 -70 c 0
 549.666992188 -70 546.666992188 -66.3330078125 546 -59 c 0
 542 -44.3330078125 537.333007812 -28.3330078125 532 -11 c 1
 505.333007812 -17.6669921875 476 -25.6669921875 444 -35 c 2
 368 -59 l 1
 348 -67 l 1
 348 -69 l 1
 346 -69 341.333007812 -64.6669921875 334 -56 c 2
 312 -28 l 2
 306 -24 303.666992188 -20.3330078125 305 -17 c 0
 304.333007812 -16.3330078125 304 -15.3330078125 304 -14 c 0
 304 -10 311.333007812 -8.3330078125 326 -9 c 0
 355.333007812 -9 385 -7 415 -3 c 1
 415 84 l 1
 362 84 l 1
 362 74 l 1
 358 60.6669921875 346 53 326 51 c 0
 325.333007812 50.3330078125 323.333007812 52.3330078125 320 57 c 0
 320.666992188 58.3330078125 321 69.6669921875 321 91 c 2
 322 126 l 1
 322 134 l 2
 322.666992188 162.666992188 322 188.333007812 320 211 c 2
 319 229 l 2
 319 231.666992188 319.333007812 232.333007812 320 231 c 1
 320 232.333007812 324.333007812 230.333007812 333 225 c 2
 373 202 l 1
 416 202 l 1
 416 287 l 1
 415 295 l 2
 415 297.666992188 415.333007812 298.333007812 416 297 c 2
 417 297 l 2
 419 297 423.333007812 295.666992188 430 293 c 2
 471 277 l 2
 476.298828125 276.1171875 486.357421875 271.357421875 483 268 c 1
 484 268 l 1
 484 267 l 2
 484 266.333007812 480.666992188 264 474 260 c 2
 457 246 l 1
 457 202 l 1
 497 202 l 1
 511 221 l 2
 516.333007812 229 521.333007812 233 526 233 c 0
 530 233 533.666992188 230.333007812 537 225 c 2
 560 202 l 2
 566 196.666992188 569 192 569 188 c 0
 569 184 566.333007812 180.333007812 561 177 c 2
 547 165 l 1
 548 124 l 2
 548 100 548.333007812 86.6669921875 549 84 c 0
 543 70 531 62.3330078125 513 61 c 0
 508.333007812 60.3330078125 506.333007812 62 507 66 c 2
 507 84 l 1
 457 84 l 1
 457 -1 l 1
 485 1 507.666992188 2.6669921875 525 4 c 1
 515.666992188 20.6669921875 506.333007812 34.3330078125 497 45 c 1
 492 57 l 2
 492 58.3330078125 493 59 495 59 c 0
93 174 m 1
 93 102 l 1
 145 102 l 1
 145 174 l 1
 93 174 l 1
238 102 m 1
 238 174 l 1
 185 174 l 1
 185 102 l 1
 238 102 l 1
364 179 m 1
 364 107 l 1
 416 107 l 1
 416 179 l 1
 364 179 l 1
509 107 m 1
 509 179 l 1
 457 179 l 1
 457 107 l 1
 509 107 l 1
575 -91 m 0
 575 -47.283203125 639 -84.00390625 639 370 c 2
 639 619 l 2
 638.333007812 621 638 628.666992188 638 642 c 2
 638 664 l 1
 637 712 l 1
 636 720 l 2
 636 722.666992188 636.666992188 723.333007812 638 722 c 1
 638 723 l 1
 639.333007812 723 643.333007812 718.666992188 650 710 c 2
 682 680 l 1
 740 697.333007812 793 720 841 748 c 1
 872.333007812 777.333007812 889.666992188 794 893 798 c 1
 894 798 l 1
 901 794 l 1
 936 748 l 2
 940.666992188 740.666992188 943 735.666992188 943 733 c 0
 943 728.333007812 939.333007812 726 932 726 c 2
 917 728 l 1
 903 724.666992188 889.333007812 720.333007812 876 715 c 2
 846 700 l 1
 860.1953125 398.743164062 877.856445312 296.302734375 920 161 c 1
 959.899414062 11.376953125 1013 -56.9140625 1013 -70 c 0
 1013 -73.3330078125 1011 -76 1007 -78 c 0
 999.666992188 -73.3330078125 991.666992188 -71 983 -71 c 0
 962.227539062 -71 952.809570312 -86 950 -86 c 0
 947.333007812 -86 945.333007812 -82.6669921875 944 -76 c 0
 850.55078125 168.747070312 833.440429688 406.190429688 827 696 c 1
 792 689 l 1
 778 685 l 2
 774.666992188 683.666992188 772.666992188 682.666992188 772 682 c 2
 772 34 l 1
 833 70 l 2
 837 72 839.666992188 74 841 76 c 2
 816 134 l 1
 816 138 l 2
 816 146 818.333007812 148 823 144 c 0
 873.666992188 81.3330078125 894.666992188 40 886 20 c 1
 884 -10 876 -26.6669921875 862 -30 c 2
 860 -30 l 2
 854 -30 850.333007812 -23.3330078125 849 -10 c 0
 848.333007812 10.6669921875 846.333007812 31.3330078125 843 52 c 1
 781.12890625 0.4404296875 773.3828125 -7.1728515625 751 -40 c 0
 746.333007812 -50 743.666992188 -54 743 -52 c 2
 743 -52 742 -52.0361328125 742 -49 c 2
 735 -40 l 1
 724 -14 l 2
 720.666992188 -8 719 -4 719 -2 c 2
 719 0 l 2
 719 16.333984375 736.383789062 4.1748046875 735 72 c 2
 735 670 l 1
 719 667.333007812 700.333007812 663.333007812 679 658 c 1
 679 400 l 2
 681.666992188 164.666992188 650.666992188 1.3330078125 586 -90 c 0
 583.333007812 -93.3330078125 580.666992188 -95 578 -95 c 0
 576 -95 575 -93.6669921875 575 -91 c 0
EndSplineSet
EndChar

StartChar: u2CEAD
Encoding: 183981 183981 39
Width: 1000
VWidth: 1050
Flags: H
LayerCount: 2
Fore
SplineSet
318 305 m 0
 318 320.619140625 413.211914062 341.98046875 466 521 c 1
 381 522 l 1
 359 513 l 1
 316 546 l 1
 473 547 l 1
 481.666992188 582.333007812 486.333007812 624.333007812 487 673 c 1
 417 673 l 1
 383.134765625 623.142578125 329.862304688 564 323 564 c 0
 317.44921875 564 314.337890625 570.006835938 317 574 c 0
 434.471679688 759.018554688 406.700195312 816 433 816 c 1
 441 814 l 1
 491 792 l 2
 497 790 500 787 500 783 c 0
 500 778.333007812 495.666992188 776 487 776 c 2
 475 776 l 1
 461.666992188 747.333007812 447.333007812 721 432 697 c 1
 591 698 l 1
 614 725 l 2
 618 729.666992188 622 732 626 732 c 0
 630.666992188 732 635.333007812 729.666992188 640 725 c 2
 696 692 l 2
 702 687.333007812 705 683.333007812 705 680 c 0
 705 675.333007812 700 673.333007812 690 674 c 2
 541 673 l 1
 537.666992188 621.666992188 532.333007812 579.333007812 525 546 c 1
 590 547 l 1
 613 572 l 2
 617.666992188 575.333007812 621 577 623 577 c 0
 627 577 631.333007812 575 636 571 c 2
 696 538 l 2
 701.333007812 534 704 530.666992188 704 528 c 0
 704 524 699 522 689 522 c 2
 521 522 l 1
 514 502 l 1
 601.91796875 460.971679688 689 375.184570312 689 352 c 0
 689 312.061523438 670.591796875 291 654 291 c 0
 648.666992188 291 641.333007812 299.666992188 632 317 c 1
 626 361.666992188 584.666992188 418 508 486 c 1
 446.701171875 346.161132812 352.943359375 300 325 300 c 0
 320.333007812 300 318 301.666992188 318 305 c 0
689 -31 m 0
 689 -28.3330078125 691.333007812 -26.6669921875 696 -26 c 0
 739.333007812 -32.6669921875 774.666992188 -36 802 -36 c 0
 822 -36 832 -22 832 6 c 2
 832 490 l 1
 752 490 l 1
 732 480 l 1
 690 512 l 1
 882 512 l 1
 916 550 l 2
 921.333007812 557.333007812 925 561 927 561 c 2
 928 560 l 1
 928.666992188 562 936 558 950 548 c 2
 984 516 l 2
 996.666992188 506 1003 499 1003 495 c 1
 1003 494.333007812 1002.66699219 494 1002 494 c 1
 1004.66699219 490 1001.33300781 488.666992188 992 490 c 2
 884 490 l 1
 884 218 l 2
 886 55.3330078125 888 -31.3330078125 890 -42 c 0
 888.612304688 -87.779296875 842.552734375 -118.701171875 788 -120 c 1
 783.305664062 -61.318359375 689 -48.23828125 689 -31 c 0
176 -67 m 2
 177.333007812 -15 178 18.6669921875 178 34 c 2
 178 396 l 1
 127.333007812 332 86 289.333007812 54 268 c 0
 46.6669921875 266.666992188 43 269 43 275 c 0
 43 277.666992188 43.3330078125 279.333007812 44 280 c 0
 167.150390625 420.743164062 214.055664062 532.59375 244 604 c 0
 246 604.666992188 248.666992188 603.333007812 252 600 c 2
 300 562 l 2
 306.666992188 557.333007812 310 553 310 549 c 0
 310 546.333007812 308.333007812 544.333007812 305 543 c 2
 286 540 l 1
 272 518 248 483.333007812 214 436 c 1
 240 422 l 2
 248 418.666992188 252.333007812 415.333007812 253 412 c 2
 252 410 l 2
 252.666992188 409.333007812 250 406.666992188 244 402 c 2
 230 390 l 1
 230 -88 l 1
 225.333007812 -108.666992188 208.666992188 -120 180 -122 c 0
 175.333007812 -123.333007812 173.333007812 -121.333007812 174 -116 c 2
 176 -67 l 2
752 702 m 1
 732 692 l 1
 690 726 l 1
 866 726 l 1
 892 758 l 2
 898.666992188 766 903 770.333007812 905 771 c 2
 906 771 l 1
 906 770 l 1
 906.666992188 772.666992188 914 768 928 756 c 2
 960 730 l 2
 977.333007812 714 984 706 980 706 c 1
 982.666992188 702 979.333007812 700.666992188 970 702 c 2
 752 702 l 1
48 530 m 1
 39 528 l 2
 37 528 36 528.666992188 36 530 c 0
 36 539.423828125 95.34375 593.807617188 168 720 c 0
 194.666992188 772.666992188 208.666992188 801.333007812 210 806 c 0
 211.333007812 807.333007812 214.666992188 805.333007812 220 800 c 2
 268 760 l 2
 274.666992188 752.666992188 278 747.333007812 278 744 c 0
 278 740 274 738 266 738 c 2
 250 740 l 1
 140.397460938 601.805664062 94.7158203125 559.333007812 48 530 c 1
625 -44 m 0
 623.768554688 -62.4677734375 607.42578125 -80 580 -80 c 0
 575.333007812 -80 573 -77.6669921875 573 -73 c 2
 573 -15 l 1
 429 -15 l 1
 429 -57 l 2
 426.013671875 -69.6923828125 416.061523438 -92 383 -92 c 0
 378.333007812 -92 376 -90.3330078125 376 -87 c 0
 379.333007812 -43 381 3 381 51 c 2
 381 177 l 2
 381 193 380.333007812 213.666992188 379 239 c 2
 378 299 l 2
 378 307 382 308.666992188 390 304 c 2
 436 267 l 1
 552 267 l 1
 579 296 l 2
 581.666992188 298.666992188 584.666992188 300 588 300 c 0
 592 300 595.333007812 299 598 297 c 2
 644 259 l 2
 648 256.333007812 650 253.333007812 650 250 c 0
 650 248 648.333007812 244.666992188 645 240 c 2
 621 215 l 1
 621 72 l 2
 621 36.6669921875 622.333007812 -2 625 -44 c 0
429 9 m 1
 573 9 l 1
 573 243 l 1
 429 243 l 1
 429 9 l 1
EndSplineSet
EndChar
